<?xml version="1.0" standalone="no"?>
<!DOCTYPE svg PUBLIC "-//W3C//DTD SVG 20010904//EN"
 "http://www.w3.org/TR/2001/REC-SVG-20010904/DTD/svg10.dtd">
<svg version="1.0" xmlns="http://www.w3.org/2000/svg"
 viewBox="0 0 2600.000000 2600.000000"
 preserveAspectRatio="xMidYMid meet">
<metadata>
Created by potrace 1.15, written by Peter Selinger 2001-2017
</metadata>
<g transform="translate(0.000000,2600.000000) scale(0.100000,-0.100000)"
fill="#000000" stroke="none">
<path d="M9672 24014 c-64 -32 -108 -83 -127 -149 -13 -44 -15 -1452 -13
-11435 l3 -11385 30 -53 c81 -148 279 -176 398 -58 39 40 75 122 507 1153
l464 1110 30 -8 c124 -36 340 34 501 161 171 137 314 371 372 610 25 104 25
367 0 460 -31 116 -92 226 -168 302 l-68 68 325 777 c179 428 332 792 339 809
l13 31 78 -14 c239 -43 495 51 648 237 25 30 507 770 1071 1643 563 874 1030
1596 1037 1606 12 17 36 -11 228 -262 118 -154 218 -286 223 -293 5 -8 -11
-38 -42 -81 -27 -37 -72 -117 -99 -178 -244 -545 -769 -1637 -1074 -2235 -621
-1217 -1118 -2124 -1650 -3010 -211 -352 -236 -409 -245 -565 -24 -396 293
-735 687 -735 119 0 210 22 320 76 78 39 109 62 175 128 72 73 100 115 276
411 655 1099 1206 2115 1858 3425 275 552 457 928 663 1370 66 140 123 258
127 262 4 4 43 1 86 -7 144 -28 357 -19 510 20 473 122 971 587 1536 1435 549
825 1129 1999 1724 3489 152 380 305 778 305 791 0 4 -48 7 -107 7 -278 0
-646 88 -918 219 -338 162 -643 430 -859 754 -56 83 -165 290 -200 379 l-17
44 -39 -54 c-71 -99 -127 -212 -200 -404 -40 -104 -76 -194 -80 -199 -12 -12
-151 123 -205 199 -117 164 -167 333 -166 565 0 149 18 274 69 465 33 126 37
152 36 260 -1 100 -5 133 -27 198 -71 218 -235 382 -452 454 -67 22 -99 26
-195 27 l-116 1 15 65 c9 41 15 120 15 215 1 127 -3 162 -22 230 -35 122 -86
209 -170 293 l-74 73 792 1892 c436 1041 793 1893 793 1893 1 1 31 -4 67 -12
185 -39 414 57 598 251 150 157 245 347 288 573 20 105 15 315 -10 407 -38
140 -149 310 -237 362 -16 10 -29 22 -29 28 0 5 57 145 126 310 83 199 127
317 131 351 11 102 -44 201 -139 248 l-52 26 -4806 0 -4806 0 -52 -26z m6948
-7903 c0 -5 -6 -40 -14 -78 -102 -486 -82 -968 60 -1392 164 -496 496 -914
982 -1236 56 -37 102 -73 102 -78 0 -6 -44 -109 -99 -231 -308 -690 -643
-1359 -922 -1842 -162 -282 -397 -623 -419 -609 -5 3 -166 212 -359 464 -193
252 -375 481 -406 509 -121 111 -265 171 -430 179 -170 9 -310 -32 -450 -132
-88 -63 -128 -111 -271 -334 -134 -207 -151 -231 -136 -191 38 98 2075 4956
2080 4961 4 4 34 2 67 -4 47 -8 74 -7 125 5 81 19 90 20 90 9z"/>
<path d="M20555 22115 c-211 -46 -360 -165 -495 -395 -366 -621 -651 -1770
-835 -3367 -34 -298 -75 -726 -70 -731 2 -3 32 20 67 50 348 302 778 483 1238
520 80 6 146 12 147 12 1 1 15 112 32 247 160 1290 369 2152 621 2564 106 173
133 259 134 420 1 136 -26 240 -89 347 -78 133 -176 222 -317 288 -122 57
-296 75 -433 45z"/>
<path d="M20455 17944 c-16 -2 -66 -9 -110 -15 -171 -22 -348 -77 -524 -160
-207 -98 -343 -193 -510 -354 -279 -270 -467 -610 -547 -990 -35 -166 -44
-423 -20 -584 99 -671 481 -1200 1071 -1482 181 -87 375 -140 630 -173 154
-21 192 -20 376 4 170 23 298 52 432 100 595 210 1046 706 1203 1320 90 356
62 793 -72 1135 -238 601 -754 1037 -1389 1171 -100 22 -153 26 -315 29 -107
2 -208 1 -225 -1z"/>
</g>
</svg>
